HIERARCHY
ROOT Hips
{
	OFFSET 0.00 0.00 0.00
	CHANNELS 6 Xposition Yposition Zposition Xrotation Yrotation Zrotation
	JOINT Spine
	{
		OFFSET 0.00000 1.70439 2.55658
		CHANNELS 3 Xrotation Yrotation Zrotation
		JOINT Spine1
		{
			OFFSET 0.00000 0.59193 3.35699
			CHANNELS 3 Xrotation Yrotation Zrotation
			JOINT Spine2
			{
				OFFSET 0.00000 0.29710 3.39581
				CHANNELS 3 Xrotation Yrotation Zrotation
				JOINT Spine3
				{
					OFFSET 0.00000 0.00000 3.40878
					CHANNELS 3 Xrotation Yrotation Zrotation
					JOINT Neck
					{
						OFFSET 0.00000 -1.27828 8.94804
						CHANNELS 3 Xrotation Yrotation Zrotation
						JOINT Head
						{
							OFFSET 0.00000 -0.81390 4.61586
							CHANNELS 3 Xrotation Yrotation Zrotation
							End Site
							{
								OFFSET 0.00000 0.00001 5.51796
							}
						}
					}
					JOINT RightShoulder
					{
						OFFSET -1.18875 -1.98124 6.41925
						CHANNELS 3 Xrotation Yrotation Zrotation
						JOINT RightArm
						{
							OFFSET -5.90412 0.00000 0.00000
							CHANNELS 3 Xrotation Yrotation Zrotation
							JOINT RightForeArm
							{
								OFFSET -11.94674 0.00000 0.00000
								CHANNELS 3 Xrotation Yrotation Zrotation
								JOINT RightHand
								{
									OFFSET -10.17720 0.00000 0.00000
									CHANNELS 3 Xrotation Yrotation Zrotation
									JOINT RightHandEnd
									{
										OFFSET -2.84518 0.00000 0.00000
										CHANNELS 3 Xrotation Yrotation Zrotation
										End Site
										{
											OFFSET -2.84518 0.00000 0.00000
										}
									}
									JOINT RightHandThumb1
									{
										OFFSET -1.13807 -1.89679 -0.75871
										CHANNELS 3 Yrotation Xrotation Zrotation
										End Site
										{
											OFFSET -2.74823 -0.73639 0.00000
										}
									}
								}
							}
						}
					}
					JOINT LeftShoulder
					{
						OFFSET 1.18875 -1.98124 6.41925
						CHANNELS 3 Xrotation Yrotation Zrotation
						JOINT LeftArm
						{
							OFFSET 5.90412 0.00000 0.00000
							CHANNELS 3 Xrotation Yrotation Zrotation
							JOINT LeftForeArm
							{
								OFFSET 11.94674 0.00000 0.00000
								CHANNELS 3 Xrotation Yrotation Zrotation
								JOINT LeftHand
								{
									OFFSET 10.17720 0.00000 0.00000
									CHANNELS 3 Xrotation Yrotation Zrotation
									JOINT LeftHandEnd
									{
										OFFSET 2.84518 0.00000 0.00000
										CHANNELS 3 Xrotation Yrotation Zrotation
										End Site
										{
											OFFSET 2.84518 0.00000 0.00000
										}
									}
									JOINT LeftHandThumb1
									{
										OFFSET 1.13807 -1.89679 -0.75871
										CHANNELS 3 Yrotation Xrotation Zrotation
										End Site
										{
											OFFSET 2.74823 -0.73639 0.00000
										}
									}
								}
							}
						}
					}
				}
			}
		}
	}
	JOINT RightUpLeg
	{
		OFFSET -3.52662 0.00000 -1.03025
		CHANNELS 3 Xrotation Yrotation Zrotation
		JOINT RightLeg
		{
			OFFSET 0.00001 0.00000 -17.80159
			CHANNELS 3 Xrotation Yrotation Zrotation
			JOINT RightFoot
			{
				OFFSET 0.00001 0.00000 -16.85992
				CHANNELS 3 Xrotation Yrotation Zrotation
				JOINT RightToeBase
				{
					OFFSET 0.00000 -5.42953 -1.97619
					CHANNELS 3 Xrotation Yrotation Zrotation
					End Site
					{
						OFFSET 0.00000 -2.85300 -0.00000
					}
				}
			}
		}
	}
	JOINT LeftUpLeg
	{
		OFFSET 3.52662 0.00000 -1.03025
		CHANNELS 3 Xrotation Yrotation Zrotation
		JOINT LeftLeg
		{
			OFFSET 0.00001 0.00000 -17.80159
			CHANNELS 3 Xrotation Yrotation Zrotation
			JOINT LeftFoot
			{
				OFFSET 0.00001 0.00000 -16.85992
				CHANNELS 3 Xrotation Yrotation Zrotation
				JOINT LeftToeBase
				{
					OFFSET 0.00000 -5.42953 -1.97619
					CHANNELS 3 Xrotation Yrotation Zrotation
					End Site
					{
						OFFSET 0.00000 -2.85300 -0.00000
					}
				}
			}
		}
	}
}
MOTION
Frames: 10
Frame Time: 0.008342
 2.3524 -6.2936 37.9612 -0.1038 3.9750 175.1059 0.6668 -5.7782 -0.3991 0.4770 -1.2521 -0.3734 3.4453 -10.5697 -0.4321 0.9561 -1.0159 2.2165 5.2334 -2.2790 -4.5356 -0.3471 6.5208 -6.9248 -0.5960 -7.1013 12.3653 -22.5463 0.0939 32.0482 -0.0000 0.0001 98.8319 35.3117 48.1454 21.0178 0.0000 -0.0000 0.0000 0.0000 0.0000 -0.0000 12.3522 12.6851 -8.9974 47.2753 32.2952 -44.9659 -0.0000 -0.0000 -32.8970 -4.9650 -18.1289 -8.0623 0.0000 0.0000 -0.0000 -0.0000 0.0000 -0.0000 -6.7136 7.6220 -25.0151 22.2966 0.0000 0.0000 -16.4729 -1.2425 -6.0982 0.8380 0.0000 0.0000 -3.5317 0.2563 10.3661 17.5825 0.0000 0.0000 -11.2187 5.6429 7.6161 -2.3877 0.0000 -0.0000
 2.3506 -6.3122 37.9590 -0.1330 3.9364 175.5085 0.7000 -5.7684 -0.4065 0.4792 -1.2494 -0.3672 3.4182 -10.5719 -0.4785 0.9548 -1.0183 2.2129 5.1519 -2.1947 -4.5794 -0.4253 6.4528 -6.9822 -0.8566 -7.2784 12.2601 -23.7540 -0.7753 31.4722 -0.0000 0.0001 98.3403 35.1269 48.4901 20.0864 0.0000 -0.0000 0.0000 -0.0000 0.0000 0.0000 12.2721 12.7418 -9.0961 46.4922 32.6509 -44.4009 -0.0000 -0.0000 -33.2020 -5.1659 -18.1837 -7.9274 -0.0000 -0.0000 0.0000 0.0000 -0.0000 0.0000 -6.6910 7.6044 -25.2792 22.3032 0.0000 0.0000 -16.4756 -1.2211 -6.2203 0.8216 0.0000 0.0000 -3.6319 0.2200 10.1443 17.6076 0.0000 0.0000 -11.2253 5.6308 7.4963 -2.3232 0.0000 -0.0000
 2.3490 -6.3313 37.9566 -0.1819 3.8930 175.9327 0.7052 -5.7574 -0.4110 0.4878 -1.2379 -0.3694 3.3829 -10.5805 -0.5252 0.9541 -1.0191 2.2043 5.0846 -2.1010 -4.6208 -0.4945 6.3841 -7.0324 -1.1666 -7.4879 12.1524 -25.1156 -1.7106 30.8574 -0.0000 0.0001 97.7006 34.9587 48.7770 18.9401 -0.0000 -0.0000 -0.0000 -0.0000 -0.0000 -0.0000 12.1973 12.8080 -9.1896 45.6751 33.0353 -43.8155 -0.0000 -0.0000 -33.5270 -5.4532 -18.2349 -7.7888 -0.0000 -0.0000 -0.0000 -0.0000 -0.0000 0.0000 -6.6818 7.5810 -25.5641 22.3026 0.0000 0.0000 -16.4776 -1.1985 -6.3426 0.8071 0.0000 0.0000 -3.7553 0.1789 9.9112 17.6332 0.0000 0.0000 -11.2354 5.6156 7.3712 -2.2509 0.0000 -0.0000
 2.3477 -6.3497 37.9544 -0.2256 3.8410 176.3711 0.7117 -5.7440 -0.4182 0.4930 -1.2260 -0.3695 3.3438 -10.5895 -0.5785 0.9541 -1.0189 2.1966 5.0309 -2.0002 -4.6598 -0.5501 6.3139 -7.0765 -1.5118 -7.7192 12.0463 -26.6225 -2.6887 30.2053 -0.0000 0.0001 96.9105 34.7515 49.0287 17.6765 -0.0000 -0.0000 0.0000 -0.0000 -0.0000 0.0000 12.1309 12.8781 -9.2807 44.8319 33.4457 -43.2163 -0.0000 -0.0000 -33.8725 -5.8234 -18.2842 -7.6437 -0.0000 -0.0000 -0.0000 -0.0000 0.0000 0.0000 -6.6546 7.5487 -25.8717 22.2861 0.0000 0.0000 -16.4764 -1.1766 -6.4589 0.7950 0.0000 0.0000 -3.8694 0.1302 9.6762 17.6518 0.0000 0.0000 -11.2468 5.6019 7.2344 -2.1730 0.0000 -0.0000
 2.3466 -6.3672 37.9523 -0.2682 3.7829 176.8171 0.7140 -5.7282 -0.4246 0.4968 -1.2120 -0.3694 3.3025 -10.5978 -0.6343 0.9541 -1.0174 2.1860 4.9889 -1.8968 -4.6924 -0.5912 6.2439 -7.1148 -1.8810 -7.9642 11.9441 -28.2594 -3.6911 29.5249 -0.0000 0.0001 95.9655 34.4268 49.2828 16.3946 0.0000 0.0000 -0.0000 -0.0000 -0.0000 -0.0000 12.0651 12.9501 -9.3635 43.9771 33.8798 -42.6094 -0.0000 -0.0000 -34.2351 -6.2703 -18.3276 -7.4992 -0.0000 0.0000 -0.0000 -0.0000 -0.0000 0.0000 -6.6170 7.5098 -26.1956 22.2566 0.0000 0.0000 -16.4723 -1.1556 -6.5685 0.7859 0.0000 0.0000 -3.9783 0.0760 9.4426 17.6628 0.0000 0.0000 -11.2584 5.5922 7.0877 -2.0916 0.0000 -0.0000
 2.3453 -6.3837 37.9505 -0.3060 3.7229 177.2638 0.7155 -5.7081 -0.4317 0.5001 -1.1965 -0.3697 3.2597 -10.6022 -0.6865 0.9543 -1.0150 2.1753 4.9555 -1.7928 -4.7197 -0.6150 6.1741 -7.1492 -2.2667 -8.2085 11.8480 -30.0078 -4.7043 28.8122 -0.0000 0.0001 94.8706 33.9130 49.5748 15.1595 0.0000 0.0000 -0.0000 0.0000 0.0000 -0.0000 12.0046 13.0234 -9.4395 43.1223 34.3209 -42.0045 -0.0000 -0.0000 -34.6141 -6.7690 -18.3741 -7.3449 0.0000 -0.0000 -0.0000 0.0000 -0.0000 0.0000 -6.5678 7.4693 -26.5303 22.2169 0.0000 0.0000 -16.4666 -1.1365 -6.6701 0.7804 0.0000 0.0000 -4.0758 0.0207 9.2148 17.6631 0.0000 0.0000 -11.2672 5.5888 6.9315 -2.0094 0.0000 -0.0000
 2.3441 -6.3991 37.9491 -0.3453 3.6539 177.7075 0.7089 -5.6918 -0.4386 0.5028 -1.1797 -0.3695 3.2184 -10.6011 -0.7334 0.9551 -1.0126 2.1633 4.9279 -1.6907 -4.7411 -0.6234 6.1050 -7.1804 -2.6594 -8.4433 11.7588 -31.8500 -5.7122 28.0728 -0.0000 0.0001 93.6288 33.1526 49.9482 13.9977 -0.0000 -0.0000 -0.0000 0.0000 -0.0000 -0.0000 11.9463 13.0974 -9.5081 42.2792 34.7627 -41.4072 -0.0000 -0.0000 -35.0057 -7.2920 -18.4234 -7.1848 0.0000 -0.0000 -0.0000 -0.0000 0.0000 -0.0000 -6.5122 7.4170 -26.8711 22.1618 0.0000 0.0000 -16.4547 -1.1189 -6.7656 0.7782 0.0000 0.0000 -4.1714 -0.0452 8.9954 17.6602 0.0000 0.0000 -11.2769 5.5935 6.7645 -1.9278 0.0000 -0.0000
 2.3424 -6.4131 37.9480 -0.3764 3.5890 178.1415 0.7047 -5.6683 -0.4455 0.5050 -1.1632 -0.3686 3.1781 -10.5905 -0.7719 0.9557 -1.0087 2.1511 4.9043 -1.5939 -4.7560 -0.6165 6.0368 -7.2093 -3.0561 -8.6568 11.6751 -33.7637 -6.7122 27.3070 -0.0000 0.0001 92.2481 32.1025 50.4255 12.9150 -0.0000 -0.0000 -0.0000 -0.0000 -0.0000 0.0000 11.8929 13.1709 -9.5667 41.4585 35.1925 -40.8254 -0.0000 -0.0000 -35.4100 -7.8055 -18.4764 -7.0130 -0.0000 -0.0000 0.0000 -0.0000 0.0000 0.0000 -6.4455 7.3700 -27.2147 22.1004 0.0000 0.0000 -16.4424 -1.1045 -6.8503 0.7799 0.0000 0.0000 -4.2504 -0.1055 8.7847 17.6441 0.0000 0.0000 -11.2800 5.6063 6.5925 -1.8497 0.0000 -0.0000
 2.3404 -6.4258 37.9474 -0.4035 3.5204 178.5643 0.6981 -5.6466 -0.4526 0.5070 -1.1467 -0.3677 3.1409 -10.5691 -0.8004 0.9562 -1.0045 2.1388 4.8828 -1.5032 -4.7652 -0.5972 5.9697 -7.2367 -3.4529 -8.8411 11.5977 -35.7307 -7.6948 26.5150 -0.0000 0.0001 90.7419 30.7544 51.0155 11.8749 -0.0000 -0.0000 -0.0000 -0.0000 0.0000 0.0000 11.8430 13.2448 -9.6157 40.6700 35.6034 -40.2637 -0.0000 -0.0000 -35.8247 -8.2719 -18.5301 -6.8266 0.0000 -0.0000 -0.0000 -0.0000 0.0000 -0.0000 -6.3693 7.3172 -27.5585 22.0263 0.0000 0.0000 -16.4250 -1.0931 -6.9269 0.7849 0.0000 0.0000 -4.3205 -0.1704 8.5834 17.6233 0.0000 0.0000 -11.2803 5.6275 6.4144 -1.7762 0.0000 -0.0000
 2.3381 -6.4370 37.9473 -0.4255 3.4498 178.9733 0.6906 -5.6260 -0.4595 0.5089 -1.1305 -0.3667 3.1069 -10.5355 -0.8183 0.9564 -0.9997 2.1260 4.8620 -1.4196 -4.7689 -0.5679 5.9036 -7.2629 -3.8495 -8.9897 11.5249 -37.7335 -8.6578 25.6986 -0.0000 0.0001 89.1247 29.1240 51.7086 10.8319 0.0000 0.0000 -0.0000 -0.0000 -0.0000 0.0000 11.7970 13.3188 -9.6532 39.9229 35.9877 -39.7282 -0.0000 -0.0000 -36.2475 -8.6578 -18.5806 -6.6241 0.0000 -0.0000 -0.0000 -0.0000 0.0000 -0.0000 -6.2836 7.2606 -27.9008 21.9404 0.0000 0.0000 -16.4025 -1.0854 -6.9948 0.7930 0.0000 0.0000 -4.3808 -0.2375 8.3904 17.5984 0.0000 0.0000 -11.2769 5.6559 6.2332 -1.7086 0.0000 -0.0000
